<svg width="911" height="788" viewBox="0 0 911 788" fill="none" xmlns="http://www.w3.org/2000/svg">
<g filter="url(#filter0_f_310_46)">
<circle cx="342.789" cy="410.257" r="150.796" fill="#00A6CB" fill-opacity="0.69"/>
</g>
<g filter="url(#filter1_f_310_46)">
<ellipse cx="517.5" cy="394" rx="219.5" ry="220" fill="#00A6CB" fill-opacity="0.71"/>
</g>
<g clip-path="url(#clip0_310_46)">
<path d="M100.334 567.86C81.0167 567.86 62.3346 560.961 47.6535 548.406C42.756 544.214 37.5378 536.926 32.144 526.746C28.702 520.188 26.7741 512.943 26.5022 505.542C26.2303 498.141 27.6214 490.773 30.5729 483.981C27.7279 486.875 24.581 489.456 21.1862 491.68L19.47 492.822L19.3709 490.764C19.3058 489.426 19.2729 488.092 19.2729 486.8C19.2729 479.184 25.033 471.456 22.3765 464.417C11.18 434.747 -24.3324 405.262 27.1359 359.345C31.897 355.097 25.5369 346.605 25.5369 340.178C25.5369 277.197 93.9693 182.719 139.78 225.957C166.521 251.196 222.232 269.125 248.244 304.231L248.588 305.271L247.573 305.682C242.376 307.866 236.902 309.322 231.307 310.009C237.272 311.225 243.36 311.735 249.445 311.528L250.388 311.495L250.618 312.412C252.882 321.494 254.025 330.819 254.024 340.178L254.02 341.19C253.999 348.299 255.476 355.333 258.356 361.833C261.235 368.333 265.453 374.152 270.732 378.913C279.072 386.517 285.736 395.775 290.3 406.097C294.863 416.419 297.226 427.578 297.238 438.864C297.238 452.216 288.163 469.743 280.551 482.095C278.621 485.241 276.004 487.91 272.896 489.9C269.788 491.891 266.27 493.152 262.605 493.589C259.134 494.027 255.609 493.696 252.279 492.621C248.95 491.545 245.898 489.751 243.338 487.365C246.942 494.61 251.637 501.258 257.261 507.077L258.3 508.147L257.01 508.898C244.616 516.125 230.525 519.931 216.178 519.925L215.338 519.923C193.556 519.923 172.881 528.361 158.614 543.075C151.039 550.879 141.982 557.09 131.974 561.346C121.966 565.602 111.209 567.817 100.334 567.86Z" fill="#E6E6E6"/>
<path d="M71.7492 694.838C71.3985 694.837 71.0597 694.711 70.7949 694.481C70.5302 694.251 70.3572 693.933 70.3078 693.586C70.2459 693.15 64.1795 649.398 69.6278 591.25C74.6594 537.549 90.8178 460.2 139.222 396.675C139.338 396.523 139.483 396.394 139.649 396.298C139.814 396.201 139.997 396.138 140.187 396.113C140.377 396.087 140.57 396.099 140.755 396.148C140.94 396.197 141.114 396.282 141.267 396.398C141.419 396.514 141.547 396.659 141.643 396.824C141.74 396.99 141.802 397.173 141.828 397.363C141.853 397.553 141.841 397.746 141.792 397.931C141.743 398.116 141.658 398.29 141.541 398.442C93.555 461.419 77.5268 538.2 72.5307 591.522C67.114 649.332 73.1329 692.743 73.1944 693.175C73.2236 693.381 73.2081 693.592 73.1489 693.793C73.0897 693.993 72.9881 694.178 72.8511 694.336C72.7141 694.493 72.5448 694.62 72.3547 694.707C72.1647 694.793 71.9581 694.838 71.7492 694.838Z" fill="#3F3D56"/>
<path d="M115.946 484.673C115.639 484.673 115.338 484.576 115.089 484.395C114.84 484.214 114.654 483.959 114.559 483.667C114.464 483.374 114.464 483.058 114.559 482.765C114.654 482.472 114.839 482.217 115.088 482.036C128.881 472.7 143.78 465.116 159.444 459.456C183.916 450.497 221.13 442.375 259.441 454.568C259.623 454.626 259.792 454.719 259.938 454.843C260.085 454.966 260.205 455.117 260.293 455.287C260.381 455.457 260.435 455.643 260.451 455.834C260.467 456.024 260.446 456.216 260.388 456.399C260.329 456.581 260.236 456.75 260.113 456.897C259.989 457.043 259.838 457.164 259.668 457.251C259.498 457.339 259.312 457.393 259.122 457.409C258.931 457.425 258.739 457.404 258.556 457.346C221.031 445.403 184.492 453.391 160.447 462.195C145.035 467.757 130.374 475.214 116.802 484.395C116.554 484.576 116.254 484.673 115.946 484.673Z" fill="#3F3D56"/>
<path d="M702.334 567.86C683.017 567.86 664.335 560.961 649.653 548.406C644.756 544.214 639.538 536.926 634.144 526.746C630.702 520.188 628.774 512.943 628.502 505.542C628.23 498.141 629.621 490.773 632.573 483.981C629.728 486.875 626.581 489.456 623.186 491.68L621.47 492.822L621.371 490.764C621.306 489.426 621.273 488.092 621.273 486.8C621.273 479.184 627.033 471.456 624.376 464.417C613.18 434.747 577.668 405.262 629.136 359.345C633.897 355.097 627.537 346.605 627.537 340.178C627.537 277.196 716.552 168.236 741.78 225.957C772.893 297.142 826.497 289.528 850.244 304.231L850.588 305.271L849.573 305.682C844.376 307.866 838.902 309.322 833.307 310.009C839.272 311.225 845.36 311.735 851.445 311.528L852.388 311.495L852.618 312.412C854.882 321.494 856.025 330.819 856.024 340.178L856.02 341.19C855.999 348.299 857.476 355.333 860.356 361.833C863.235 368.332 867.453 374.152 872.732 378.913C881.072 386.517 887.736 395.775 892.3 406.097C896.863 416.419 899.226 427.578 899.238 438.864C899.238 452.216 890.163 469.743 882.551 482.095C880.621 485.241 878.004 487.91 874.896 489.9C871.788 491.891 868.27 493.152 864.605 493.589C861.134 494.027 857.609 493.696 854.279 492.621C850.95 491.545 847.898 489.751 845.338 487.365C848.942 494.61 853.637 501.258 859.261 507.076L860.3 508.147L859.01 508.898C846.616 516.125 832.525 519.931 818.178 519.925L817.338 519.923C795.556 519.923 774.881 528.361 760.614 543.075C753.039 550.878 743.982 557.09 733.974 561.346C723.966 565.602 713.209 567.817 702.334 567.86Z" fill="#E6E6E6"/>
<path d="M673.749 694.838C673.399 694.837 673.06 694.711 672.795 694.481C672.53 694.251 672.357 693.933 672.308 693.586C672.246 693.15 666.179 649.398 671.628 591.25C676.659 537.549 692.818 460.2 741.222 396.675C741.338 396.523 741.483 396.394 741.649 396.298C741.814 396.201 741.997 396.138 742.187 396.113C742.377 396.087 742.57 396.099 742.755 396.148C742.94 396.197 743.114 396.282 743.267 396.398C743.419 396.514 743.547 396.659 743.643 396.824C743.74 396.99 743.802 397.173 743.828 397.363C743.853 397.553 743.841 397.746 743.792 397.931C743.743 398.116 743.658 398.29 743.541 398.442C695.555 461.419 679.527 538.2 674.531 591.522C669.114 649.332 675.133 692.743 675.194 693.175C675.224 693.381 675.208 693.592 675.149 693.793C675.09 693.993 674.988 694.178 674.851 694.336C674.714 694.493 674.545 694.62 674.355 694.707C674.165 694.793 673.958 694.838 673.749 694.838Z" fill="#3F3D56"/>
<path d="M713.946 487.673C713.638 487.673 713.338 487.576 713.089 487.395C712.84 487.214 712.654 486.959 712.559 486.667C712.464 486.374 712.463 486.058 712.559 485.765C712.654 485.472 712.839 485.217 713.088 485.036C726.88 475.7 741.78 468.116 757.444 462.456C781.916 453.497 819.13 445.375 857.44 457.568C857.623 457.626 857.792 457.719 857.938 457.843C858.085 457.966 858.205 458.117 858.293 458.287C858.381 458.457 858.434 458.643 858.451 458.834C858.467 459.024 858.445 459.216 858.387 459.399C858.329 459.581 858.236 459.75 858.112 459.897C857.989 460.043 857.838 460.164 857.668 460.251C857.498 460.339 857.312 460.393 857.121 460.409C856.931 460.425 856.739 460.404 856.556 460.346C819.031 448.403 782.492 456.391 758.447 465.195C743.034 470.757 728.374 478.214 714.802 487.395C714.553 487.576 714.254 487.673 713.946 487.673Z" fill="#3F3D56"/>
<path d="M647.226 321.498C647.204 321.19 647.279 320.884 647.441 320.622C647.604 320.361 647.845 320.157 648.13 320.041C648.415 319.925 648.73 319.902 649.029 319.976C649.328 320.05 649.596 320.216 649.794 320.452C660.099 333.536 668.737 347.851 675.51 363.067C686.208 386.83 696.989 423.362 687.587 462.451C687.542 462.637 687.462 462.813 687.349 462.968C687.236 463.123 687.095 463.254 686.931 463.354C686.768 463.454 686.587 463.521 686.397 463.551C686.208 463.581 686.015 463.573 685.829 463.528C685.643 463.484 685.467 463.403 685.312 463.29C685.157 463.177 685.026 463.035 684.926 462.872C684.826 462.708 684.759 462.527 684.73 462.338C684.7 462.149 684.708 461.955 684.753 461.769C693.962 423.481 683.363 387.612 672.851 364.264C666.193 349.292 657.7 335.206 647.566 322.331C647.367 322.096 647.248 321.804 647.226 321.498Z" fill="#3F3D56"/>
<path d="M48.226 312.498C48.2036 312.19 48.279 311.884 48.4414 311.622C48.6039 311.361 48.845 311.157 49.1302 311.041C49.4154 310.925 49.73 310.902 50.029 310.976C50.328 311.05 50.5959 311.216 50.7944 311.452C61.0993 324.536 69.7374 338.851 76.5098 354.067C87.2083 377.83 97.9894 414.362 88.5871 453.451C88.5425 453.637 88.4615 453.813 88.349 453.968C88.2365 454.123 88.0945 454.254 87.9312 454.354C87.7679 454.454 87.5865 454.521 87.3973 454.551C87.2082 454.581 87.0149 454.573 86.8287 454.528C86.6425 454.484 86.467 454.403 86.3121 454.29C86.1572 454.177 86.0261 454.035 85.9262 453.872C85.8262 453.708 85.7595 453.527 85.7297 453.338C85.6999 453.149 85.7077 452.955 85.7527 452.769C94.9616 414.481 84.363 378.612 73.851 355.264C67.1935 340.292 58.6998 326.206 48.5655 313.331C48.3669 313.096 48.2481 312.804 48.226 312.498Z" fill="#3F3D56"/>
<path d="M450.6 165.127C448.86 163.344 446.721 162.001 444.358 161.21C441.996 160.419 439.479 160.203 437.016 160.58C434.554 160.957 432.217 161.915 430.199 163.376C428.181 164.837 426.54 166.758 425.413 168.979C401.694 185.487 386.657 207.606 380.984 235.777L338.905 197.599C339.398 194.406 338.868 191.138 337.389 188.264C335.911 185.391 333.56 183.06 330.674 181.605C327.789 180.15 324.517 179.646 321.327 180.166C318.138 180.686 315.195 182.202 312.92 184.498C310.646 186.794 309.157 189.751 308.667 192.945C308.177 196.139 308.712 199.406 310.194 202.278C311.675 205.15 314.029 207.479 316.916 208.93C319.803 210.382 323.076 210.882 326.265 210.359C333.989 223.471 369.819 281.455 391.933 268.18C410.521 257.021 443.532 201.734 453.23 183.398C454.782 180.467 455.364 177.118 454.891 173.834C454.419 170.551 452.916 167.502 450.6 165.127Z" fill="#FFB6B6"/>
<path d="M451.945 190.446C454.058 184.719 455.752 178.406 453.919 172.583C451.904 166.179 445.713 161.594 439.093 160.478C432.472 159.363 425.592 161.359 419.9 164.919C414.208 168.479 409.579 173.506 405.466 178.813L406.568 177.059C401.213 184.074 395.859 191.088 390.505 198.103C404.095 207.544 417.684 216.985 431.274 226.427C440.131 215.676 447.119 203.513 451.945 190.446Z" fill="#00A6CB"/>
<path d="M393.337 673.616L373.873 673.615L364.613 598.535L393.341 598.536L393.337 673.616Z" fill="#FFB6B6"/>
<path d="M394.023 693.922L334.166 693.919V693.162C334.166 686.984 336.621 681.058 340.99 676.689C345.359 672.32 351.285 669.865 357.464 669.865H357.465L368.399 661.57L388.799 669.866L394.024 669.866L394.023 693.922Z" fill="#2F2E41"/>
<path d="M678.864 397.19L687.034 414.856L622.78 454.782L610.72 428.707L678.864 397.19Z" fill="#FFB6B6"/>
<path d="M697.005 388.042L722.133 442.369L721.446 442.687C715.838 445.281 709.429 445.541 703.63 443.409C697.83 441.278 693.114 436.931 690.52 431.323L690.519 431.322L678.401 424.881L677.365 402.883L675.172 398.141L697.005 388.042Z" fill="#2F2E41"/>
<path d="M248.034 97.7052C252.032 96.5053 254.595 93.2785 253.761 90.4978C252.926 87.7171 249.009 86.4356 245.012 87.6354C241.015 88.8352 238.451 92.0621 239.285 94.8428C240.12 97.6234 244.037 98.905 248.034 97.7052Z" fill="#E6E6E6"/>
<path d="M297.378 95.2432C301.375 94.0434 303.939 90.8166 303.104 88.0359C302.27 85.2552 298.353 83.9737 294.356 85.1735C290.358 86.3733 287.795 89.6001 288.629 92.3808C289.464 95.1615 293.381 96.443 297.378 95.2432Z" fill="#3F3D56"/>
<path d="M240.549 139.056C244.547 137.857 247.11 134.63 246.276 131.849C245.441 129.068 241.524 127.787 237.527 128.987C233.53 130.187 230.966 133.413 231.801 136.194C232.635 138.975 236.552 140.256 240.549 139.056Z" fill="#FF6584"/>
<path d="M224.985 156.342C226.798 156.06 227.939 153.718 227.532 151.112C227.126 148.505 225.327 146.622 223.514 146.905C221.701 147.187 220.561 149.529 220.967 152.135C221.373 154.741 223.172 156.625 224.985 156.342Z" fill="#E6E6E6"/>
<path d="M222.27 187.448C224.083 187.165 225.223 184.823 224.817 182.217C224.411 179.611 222.611 177.728 220.798 178.01C218.986 178.293 217.845 180.635 218.252 183.241C218.658 185.847 220.457 187.731 222.27 187.448Z" fill="#3F3D56"/>
<path d="M270.171 126.313C271.984 126.03 273.124 123.688 272.718 121.082C272.312 118.476 270.513 116.593 268.7 116.875C266.887 117.158 265.746 119.5 266.153 122.106C266.559 124.712 268.358 126.596 270.171 126.313Z" fill="#E6E6E6"/>
<path d="M244.927 118.061C246.74 117.779 247.88 115.437 247.473 112.831C247.067 110.224 245.268 108.341 243.455 108.624C241.642 108.906 240.502 111.248 240.908 113.854C241.315 116.46 243.114 118.344 244.927 118.061Z" fill="#FF6584"/>
<path d="M274.432 91.5214C276.245 91.2387 277.385 88.8969 276.979 86.2908C276.573 83.6846 274.774 81.8011 272.961 82.0838C271.148 82.3665 270.007 84.7084 270.414 87.3145C270.82 89.9206 272.619 91.8041 274.432 91.5214Z" fill="#3F3D56"/>
<path d="M550.513 587.868C554.643 587.267 557.652 584.451 557.234 581.578C556.816 578.705 553.129 576.863 548.999 577.464C544.869 578.065 541.86 580.881 542.278 583.754C542.696 586.627 546.383 588.469 550.513 587.868Z" fill="#E6E6E6"/>
<path d="M501.341 583.07C505.471 582.469 508.48 579.653 508.062 576.78C507.644 573.907 503.957 572.065 499.828 572.666C495.698 573.267 492.688 576.083 493.106 578.956C493.525 581.829 497.211 583.671 501.341 583.07Z" fill="#3F3D56"/>
<path d="M563.978 548.06C568.107 547.459 571.117 544.643 570.699 541.77C570.281 538.897 566.594 537.055 562.464 537.656C558.334 538.257 555.325 541.073 555.743 543.946C556.161 546.819 559.848 548.661 563.978 548.06Z" fill="#FF6584"/>
<path d="M580.467 532.39C582.302 532.377 583.773 530.227 583.753 527.59C583.733 524.952 582.23 522.825 580.395 522.839C578.56 522.853 577.089 525.002 577.109 527.64C577.129 530.277 578.632 532.404 580.467 532.39Z" fill="#E6E6E6"/>
<path d="M587.713 502.019C589.548 502.005 591.019 499.856 590.999 497.218C590.979 494.581 589.475 492.454 587.641 492.468C585.806 492.481 584.335 494.631 584.354 497.268C584.374 499.906 585.878 502.033 587.713 502.019Z" fill="#3F3D56"/>
<path d="M531.368 555.471C533.203 555.457 534.674 553.307 534.654 550.67C534.634 548.032 533.13 545.905 531.296 545.919C529.461 545.933 527.99 548.082 528.01 550.72C528.029 553.358 529.533 555.484 531.368 555.471Z" fill="#E6E6E6"/>
<path d="M555.128 567.335C556.962 567.321 558.434 565.172 558.414 562.534C558.394 559.897 556.89 557.77 555.055 557.783C553.221 557.797 551.749 559.947 551.769 562.584C551.789 565.222 553.293 567.349 555.128 567.335Z" fill="#FF6584"/>
<path d="M522.052 589.263C523.887 589.249 525.358 587.099 525.338 584.462C525.318 581.824 523.815 579.697 521.98 579.711C520.145 579.725 518.674 581.874 518.694 584.512C518.714 587.15 520.217 589.276 522.052 589.263Z" fill="#3F3D56"/>
<path d="M423.95 334.256L412.12 348.743C412.389 352.667 411.152 354.908 407.478 354.427C407.478 354.427 408.027 361.611 403.525 359.268C399.024 356.925 400.128 363.429 400.128 363.429L396.764 367.548C396.764 367.548 396.659 374.554 393.341 371.74C390.024 368.925 388.96 377.105 388.96 377.105L384.738 382.275L341.7 434.981L365.826 628.695L394.024 626.925L400.897 457.1C402.65 452.418 405.311 449.964 409.38 450.967C411.202 451.366 412.268 450.27 412.938 448.393L416.18 446.049L458.613 415.365L514.663 511.424L654.024 437.925L641.024 412.925L543.256 445.271L540.692 414.685C537.352 412.739 537.913 410.414 540.126 407.929L539.486 400.297C542.801 398.263 541.158 395.038 538.76 391.633C533.753 387.936 534.244 383.724 537.721 379.234C537.721 379.234 542.112 321.782 520.822 313.854C499.532 305.927 423.95 334.256 423.95 334.256Z" fill="#2F2E41"/>
<path d="M465.743 145.674L439.024 146.925L425.024 166.925C415.277 188.368 412.601 212.355 417.383 235.42L427.024 281.925L424.469 316.411C417.625 321.933 417.056 328.424 423.024 335.925C415.677 361.275 478.196 349.866 536.024 340.925C536.224 328.847 533.094 316.549 525.024 303.925L532.805 203.168L504.024 168.925L481.996 154.418L465.743 145.674Z" fill="#00A6CB"/>
<path d="M490.748 173.309C488.611 174.59 486.811 176.362 485.496 178.478C484.181 180.594 483.39 182.993 483.188 185.476C482.986 187.959 483.379 190.454 484.334 192.755C485.289 195.056 486.78 197.096 488.681 198.705C491.906 219.621 511.93 239.77 543.418 257.355L496.557 289.484C493.564 288.266 490.262 288.028 487.125 288.803C483.987 289.579 481.176 291.328 479.095 293.799C477.013 296.271 475.767 299.339 475.537 302.562C475.306 305.785 476.102 308.999 477.811 311.742C479.52 314.485 482.053 316.616 485.048 317.83C488.043 319.044 491.345 319.278 494.482 318.499C497.618 317.721 500.427 315.968 502.506 313.494C504.585 311.02 505.827 307.951 506.054 304.728C520.595 300.239 585.285 278.763 577.473 254.181C570.907 233.519 524.735 188.637 509.133 174.968C506.638 172.781 503.514 171.442 500.211 171.144C496.907 170.846 493.593 171.604 490.748 173.309Z" fill="#FFB6B6"/>
<path d="M439.787 267.005C436.672 266.999 433.673 265.821 431.388 263.705C429.103 261.588 427.698 258.688 427.455 255.583L425.796 234.428C425.539 231.152 426.594 227.908 428.728 225.41C430.863 222.912 433.903 221.364 437.179 221.107L478.273 217.884C481.549 217.628 484.793 218.683 487.291 220.817C489.789 222.952 491.336 225.992 491.593 229.268L493.253 250.423C493.509 253.699 492.454 256.943 490.32 259.441C488.185 261.939 485.145 263.487 481.869 263.744L440.775 266.966C440.444 266.992 440.115 267.005 439.787 267.005Z" fill="#F2F2F2"/>
<path d="M445.701 140.603C465.022 140.603 480.685 124.94 480.685 105.618C480.685 86.297 465.022 70.634 445.701 70.634C426.38 70.634 410.717 86.297 410.717 105.618C410.717 124.94 426.38 140.603 445.701 140.603Z" fill="#FFB6B6"/>
<path d="M482.05 83.3538C480.392 81.2018 478.495 79.2253 477.051 76.9239C475.661 74.7082 474.712 72.221 473.146 70.1267C468.512 63.9325 459.896 62.6659 452.199 61.8944C447.116 61.3851 442.034 60.8758 436.951 60.3664C434.095 59.962 431.2 59.9098 428.331 60.2107C425.602 60.6346 423.008 61.6847 420.752 63.2787C418.496 64.8726 416.64 66.9672 415.329 69.3983C413.84 72.216 412.845 75.7278 409.942 77.042C408.574 77.4734 407.18 77.8199 405.769 78.0794C404.397 78.5048 403.018 79.6008 403.07 81.0362C403.164 83.6941 407.854 85.2155 406.71 87.6164C405.699 89.7366 401.653 88.2322 401.079 91.433C401.002 91.8949 401.021 92.3679 401.137 92.8218C401.253 93.2756 401.462 93.7003 401.752 94.0686C403.056 95.7401 405.198 96.1745 407.205 96.5433L403.64 101.641C415.182 106.384 428.031 106.882 439.905 103.049C441.678 102.462 443.57 102.329 445.407 102.662C447.245 102.996 448.969 103.786 450.422 104.959C451.875 106.132 453.01 107.651 453.723 109.377C454.436 111.103 454.705 112.981 454.504 114.837L454.488 114.982C454.41 115.542 454.486 116.112 454.707 116.633C454.928 117.153 455.286 117.603 455.743 117.936C457.552 119.165 459.389 117.441 460.209 115.734C461.044 113.998 461.597 111.892 463.616 111.284C464.44 111.076 465.309 111.141 466.092 111.469C466.876 111.798 467.532 112.371 467.961 113.104C469.531 115.568 468.887 118.509 467.983 121.116C465.893 127.134 462.5 132.615 458.046 137.169C465.647 136.666 463.423 137.428 471.024 136.925L473.143 137.255C478.229 134.082 480.75 128.045 482.091 122.202C485.133 108.948 490.349 94.1263 482.05 83.3538Z" fill="#2F2E41"/>
<path d="M511.712 170.446C506.66 167.018 500.939 163.858 494.846 164.238C488.146 164.655 482.207 169.564 479.534 175.722C476.86 181.88 477.145 189.039 479.233 195.419C481.321 201.8 485.089 207.501 489.252 212.768L487.815 211.278C493.338 218.161 498.86 225.043 504.383 231.926C516.813 221.003 529.242 210.079 541.672 199.156C533.364 187.976 523.236 178.27 511.712 170.446Z" fill="#00A6CB"/>
<path d="M444.731 692.082L444.746 691.385C445.062 679.697 447.919 668.217 453.119 657.745C458.319 647.272 465.738 638.058 474.859 630.742C480.007 626.679 485.647 623.28 491.645 620.627L492.217 620.372L492.314 620.99C493.476 628.37 495.315 635.903 496.172 639.246L501.916 616.832L502.555 616.648C505.481 615.788 508.599 615.825 511.504 616.754C514.41 617.682 516.971 619.459 518.858 621.856C520.826 624.254 522.032 627.186 522.319 630.275C522.606 633.364 521.962 636.469 520.469 639.188C519.13 641.683 517.814 644.285 516.541 646.802C512.167 655.452 507.645 664.395 501.054 671.344C496.014 676.555 489.873 680.574 483.081 683.107C476.289 685.641 469.016 686.626 461.795 685.989L444.731 692.082Z" fill="#F2F2F2"/>
<path d="M525.899 694.105L254.149 694.412C253.993 694.412 253.838 694.381 253.693 694.321C253.549 694.261 253.418 694.174 253.307 694.063C253.196 693.953 253.109 693.821 253.049 693.677C252.989 693.532 252.958 693.378 252.958 693.221C252.958 693.065 252.989 692.91 253.049 692.766C253.109 692.621 253.196 692.49 253.307 692.379C253.418 692.269 253.549 692.181 253.693 692.121C253.838 692.061 253.993 692.031 254.149 692.031L525.899 691.723C526.215 691.723 526.518 691.849 526.741 692.072C526.964 692.295 527.09 692.598 527.09 692.914C527.09 693.23 526.964 693.533 526.741 693.756C526.518 693.979 526.215 694.105 525.899 694.105Z" fill="#CACACA"/>
<path d="M779.899 694.105L623.149 694.412C622.993 694.412 622.838 694.381 622.693 694.321C622.549 694.261 622.418 694.174 622.307 694.063C622.196 693.953 622.109 693.821 622.049 693.677C621.989 693.532 621.958 693.378 621.958 693.221C621.958 693.065 621.989 692.91 622.049 692.766C622.109 692.621 622.196 692.49 622.307 692.379C622.418 692.269 622.549 692.181 622.693 692.121C622.838 692.061 622.993 692.031 623.149 692.031L779.899 691.723C780.215 691.723 780.518 691.849 780.741 692.072C780.964 692.295 781.09 692.598 781.09 692.914C781.09 693.23 780.964 693.533 780.741 693.756C780.518 693.979 780.215 694.105 779.899 694.105Z" fill="#CACACA"/>
<path d="M156.899 694.105L10.1489 694.412C9.99258 694.412 9.83774 694.381 9.69328 694.321C9.54882 694.261 9.41756 694.174 9.30699 694.063C9.19643 693.953 9.10873 693.821 9.04889 693.677C8.98905 693.532 8.95825 693.378 8.95825 693.221C8.95825 693.065 8.98905 692.91 9.04889 692.766C9.10873 692.621 9.19643 692.49 9.30699 692.379C9.41756 692.269 9.54882 692.181 9.69328 692.121C9.83774 692.061 9.99258 692.031 10.1489 692.031L156.899 691.723C157.056 691.723 157.211 691.753 157.356 691.813C157.501 691.872 157.632 691.96 157.743 692.071C157.854 692.181 157.942 692.313 158.002 692.457C158.062 692.602 158.093 692.757 158.093 692.914C158.093 693.071 158.062 693.226 158.002 693.37C157.942 693.515 157.854 693.646 157.743 693.757C157.632 693.868 157.501 693.955 157.356 694.015C157.211 694.075 157.056 694.105 156.899 694.105Z" fill="#CACACA"/>
<path d="M315.848 160.269C315.271 160.269 314.701 160.388 314.172 160.62C313.644 160.851 313.17 161.19 312.779 161.614C312.388 162.038 312.09 162.539 311.902 163.084C311.714 163.629 311.642 164.208 311.689 164.783C315.951 184.866 317.825 204.017 316.382 221.874C316.473 222.915 316.95 223.886 317.719 224.594C318.488 225.303 319.494 225.699 320.54 225.704H347.46C348.506 225.699 349.512 225.303 350.281 224.594C351.05 223.886 351.527 222.915 351.618 221.874C349.444 203.862 351.743 184.632 356.311 164.783C356.358 164.208 356.285 163.629 356.098 163.084C355.91 162.539 355.612 162.038 355.221 161.614C354.83 161.19 354.356 160.851 353.828 160.62C353.299 160.388 352.729 160.268 352.152 160.269H315.848Z" fill="#00A6CB"/>
<path d="M358.466 167.878L356.458 158.338C356.275 157.47 355.8 156.692 355.111 156.133C354.423 155.575 353.563 155.27 352.677 155.27H340.139C340.09 155.103 340.01 154.948 339.903 154.811L338.51 153.069C338.379 152.905 338.213 152.773 338.023 152.682C337.834 152.591 337.626 152.543 337.416 152.543H329.675C329.465 152.543 329.257 152.591 329.068 152.682C328.878 152.773 328.712 152.905 328.581 153.069L327.187 154.811C327.081 154.948 327.001 155.103 326.952 155.27H315.323C314.437 155.27 313.577 155.575 312.889 156.133C312.2 156.692 311.725 157.47 311.542 158.338L309.534 167.878C309.415 168.44 309.424 169.022 309.559 169.581C309.694 170.14 309.952 170.662 310.314 171.108C310.677 171.555 311.134 171.915 311.653 172.162C312.172 172.409 312.74 172.538 313.315 172.538C326.448 176.699 340.238 176.699 354.685 172.538C355.26 172.538 355.828 172.409 356.347 172.162C356.866 171.915 357.323 171.555 357.685 171.108C358.048 170.662 358.306 170.14 358.441 169.581C358.576 169.022 358.584 168.44 358.466 167.878Z" fill="#3F3D56"/>
</g>
<defs>
<filter id="filter0_f_310_46" x="18.2519" y="85.7195" width="649.075" height="649.075" filterUnits="userSpaceOnUse" color-interpolation-filters="sRGB">
<feFlood flood-opacity="0" result="BackgroundImageFix"/>
<feBlend mode="normal" in="SourceGraphic" in2="BackgroundImageFix" result="shape"/>
<feGaussianBlur stdDeviation="86.8705" result="effect1_foregroundBlur_310_46"/>
</filter>
<filter id="filter1_f_310_46" x="124.259" y="0.259003" width="786.482" height="787.482" filterUnits="userSpaceOnUse" color-interpolation-filters="sRGB">
<feFlood flood-opacity="0" result="BackgroundImageFix"/>
<feBlend mode="normal" in="SourceGraphic" in2="BackgroundImageFix" result="shape"/>
<feGaussianBlur stdDeviation="86.8705" result="effect1_foregroundBlur_310_46"/>
</filter>
<clipPath id="clip0_310_46">
<rect width="899.238" height="634.838" fill="white" transform="translate(0 60)"/>
</clipPath>
</defs>
</svg>
